<svg xmlns="http://www.w3.org/2000/svg" viewBox="0 0 64 64" width="64" height="64" role="img" aria-labelledby="weatherIconTitle">
  <title id="weatherIconTitle">Partly cloudy</title>
  <circle cx="40" cy="20" r="12" fill="#F5B942"/>
  <g stroke="#F5B942" stroke-width="3" stroke-linecap="round">
    <line x1="40" y1="2" x2="40" y2="6"/>
    <line x1="58" y1="20" x2="54" y2="20"/>
    <line x1="53" y1="7" x2="50" y2="10"/>
    <line x1="53" y1="33" x2="50" y2="30"/>
  </g>
  <path d="M20 46c-6.6 0-12-5.4-12-12 0-6.1 4.6-11.1 10.5-11.9C20.7 16.4 26.2 12 32.5 12c7.1 0 13 5.1 14.2 11.8 5.3 1 9.3 5.7 9.3 11.2 0 6.6-5.4 12-12 12H20z" fill="#EAF4FB" stroke="#7EC8E3" stroke-width="2"/>
</svg>
